<svg width="283" height="70" viewBox="0 0 283 70" fill="none" xmlns="http://www.w3.org/2000/svg">
  <path fill-rule="evenodd" clip-rule="evenodd" d="M36.5749 8.15602C35.3588 2.91147 33.6517 0.720313 32.2868 0.0521167C31.9424 -0.116531 31.5888 0.146283 31.5136 0.522386C30.9861 3.16161 29.2837 5.45402 28.1346 6.46795C26.2214 8.15602 24.0832 9.8441 18.9064 12.9952C15.6401 14.9833 12.6364 17.284 10.798 18.9058C4.23926 23.8563 0 31.7166 0 40.567C0 45.7163 1.43501 50.5305 3.92694 54.6314C3.91329 57.1348 4.07099 59.6521 4.49658 61.5286C5.6443 66.5891 8.03939 70 11.2168 70C13.6144 70 16.1342 67.9198 16.204 61.4959C16.2529 61.7412 16.3161 62.1313 16.3899 62.5873L16.39 62.5876C16.5541 63.6011 16.771 64.9398 17.0003 65.7372C20.1278 66.996 23.5438 67.6888 27.1217 67.6888C32.12 67.6888 36.8025 66.3367 40.8233 63.9784C40.024 65.1665 39.1619 65.8177 38.6754 66.1853C38.6496 66.2048 38.6249 66.2234 38.6013 66.2414C39.5202 68.1151 41.3123 70 43.0171 70C46.1946 70 48.5897 66.5891 49.7374 61.5286C50.1621 59.656 50.32 57.1452 50.3071 54.6468C52.8048 50.5426 54.2434 45.7228 54.2434 40.567C54.2434 30.6415 48.9118 21.9613 40.9562 17.2341C37.6969 14.7709 37.5097 13.5765 37.1078 11.0118C36.9834 10.2174 36.8383 9.29166 36.5749 8.15602ZM19.9193 48.8949C21.9703 48.8949 23.633 45.4183 23.633 41.1297C23.633 36.8412 21.9703 33.3646 19.9193 33.3646C17.8682 33.3646 16.2055 36.8412 16.2055 41.1297C16.2055 45.4183 17.8682 48.8949 19.9193 48.8949ZM43.3272 48.8949C45.3783 48.8949 47.041 45.4183 47.041 41.1297C47.041 36.8412 45.3783 33.3646 43.3272 33.3646C41.2762 33.3646 39.6135 36.8412 39.6135 41.1297C39.6135 45.4183 41.2762 48.8949 43.3272 48.8949ZM24.283 50.8036C26.0917 51.086 29.4687 51.4868 31.8956 51.4294C34.3899 51.3705 37.4426 50.9964 39.1244 50.7643C39.3157 50.7379 39.4541 50.9495 39.3536 51.1144L39.3362 51.1429C38.3205 52.8094 36.1793 56.3224 31.8956 56.3224C27.9549 56.3224 25.6587 53.3115 24.3207 51.5571L24.3206 51.5569L24.3197 51.5557C24.2251 51.4317 24.1353 51.314 24.0501 51.204C23.9185 51.0344 24.0709 50.7705 24.283 50.8036Z" fill="white"/>
  <path d="M272.121 23.3159C273.107 24.302 274.602 24.7951 276.607 24.7951C278.579 24.7951 280.058 24.302 281.044 23.3159C282.03 22.3297 282.523 21.0414 282.523 19.4509C282.523 17.9239 282.014 16.6515 280.996 15.6336C279.978 14.5838 278.515 14.0589 276.607 14.0589C274.602 14.0589 273.107 14.5679 272.121 15.5859C271.167 16.6038 270.69 17.8921 270.69 19.4509C270.69 21.0414 271.167 22.3297 272.121 23.3159Z" fill="white"/>
  <path d="M258.331 25.4154C258.268 25.5744 258.236 25.7812 258.236 26.0357C258.236 26.5447 258.443 26.9582 258.856 27.2763C259.301 27.5626 259.906 27.7058 260.669 27.7058H266.968V36.1515C264.328 35.9289 262.228 35.8016 260.669 35.7698C260.701 41.6866 260.828 47.6512 261.051 53.6634H249.742C249.774 49.9097 249.79 43.9929 249.79 35.913C249.122 35.9448 247.977 36.0243 246.354 36.1515V27.7058H249.742V26.7992C249.742 24.3179 250.251 22.2025 251.269 20.4529C252.287 18.7033 253.687 17.3832 255.468 16.4925C257.281 15.6018 259.349 15.1564 261.671 15.1564C263.548 15.1564 265.441 15.4268 267.35 15.9676C266.713 18.2898 266.077 21.2005 265.441 24.6996L265.155 26.1311C264.455 25.5267 263.675 25.0814 262.816 24.7951C261.989 24.477 261.226 24.3179 260.526 24.3179C259.954 24.3179 259.476 24.4134 259.095 24.6042C258.713 24.7951 258.458 25.0655 258.331 25.4154Z" fill="white"/>
  <path d="M74.4258 53.6634H60.5561C62.7011 49.7809 63.9219 45.3165 63.9219 40.567C63.9219 35.8888 62.7375 31.4873 60.6521 27.6459C63.1686 27.7176 66.8755 27.7535 67.8409 27.7535C69.0179 27.7535 70.6244 27.7058 72.6603 27.6103L74.044 34.6246C74.7757 32.0798 75.9209 30.2029 77.4796 28.9941C79.0384 27.7535 80.8516 27.1332 82.9193 27.1332C84.8279 27.1332 86.4821 27.5626 87.8818 28.4215C89.2814 29.2486 90.3312 30.3779 91.031 31.8094C91.7627 33.2409 92.1285 34.8473 92.1285 36.6287V43.4998C92.1285 47.7307 92.208 51.1185 92.3671 53.6634H81.6309C81.8218 48.9872 81.9172 44.6768 81.9172 40.7323C81.9172 39.3326 81.5673 38.2192 80.8675 37.3922C80.1994 36.5651 79.3405 36.1515 78.2908 36.1515C77.241 36.1515 76.3503 36.6287 75.6187 37.583C74.887 38.5055 74.4576 39.778 74.3304 41.4003C74.2667 43.8179 74.2349 45.5357 74.2349 46.5537C74.2349 48.7168 74.2985 51.0867 74.4258 53.6634Z" fill="white"/>
  <path d="M271.071 53.6634C271.294 48.5419 271.405 44.311 271.405 40.9709C271.405 36.9945 271.278 32.541 271.024 27.6103H282.476C282.221 32.3502 282.094 36.8037 282.094 40.9709C282.094 44.4701 282.205 48.7009 282.428 53.6634H271.071Z" fill="white"/>
  <path d="M169.84 40.7323C169.84 44.6768 169.745 48.9872 169.554 53.6634H180.29C180.131 51.1185 180.051 47.7307 180.051 43.4998V36.6287C180.051 34.8473 179.685 33.2409 178.954 31.8094C178.254 30.3779 177.204 29.2486 175.804 28.4215C174.405 27.5626 172.751 27.1332 170.842 27.1332C168.933 27.1332 167.216 27.674 165.689 28.7555C164.194 29.8053 163.064 31.4435 162.301 33.6703L162.349 31.1413L162.301 16.4447H150.944C151.199 21.0255 151.326 27.2286 151.326 35.0541C151.326 42.8795 151.199 49.0826 150.944 53.6634H162.349C162.221 51.1503 162.158 47.3012 162.158 42.1161L162.205 42.2115C162.205 40.3347 162.587 38.8555 163.351 37.7739C164.146 36.6923 165.1 36.1515 166.214 36.1515C167.263 36.1515 168.122 36.5651 168.79 37.3922C169.49 38.2192 169.84 39.3326 169.84 40.7323Z" fill="white"/>
  <path d="M141.511 35.7221C143.929 35.8175 146.601 35.9607 149.527 36.1515V27.7058H140.318C142.29 26.3697 144.088 24.5883 145.71 22.3616H132.731C132.509 23.8249 131.825 25.0814 130.679 26.1311C129.534 27.1809 128.135 27.7058 126.48 27.7058V36.1515C128.103 36.0243 129.662 35.9289 131.157 35.8652L131.109 43.9293C131.109 47.1422 131.872 49.6552 133.399 51.4685C134.958 53.2499 137.598 54.1406 141.32 54.1406C142.847 54.1406 144.088 54.1087 145.042 54.0451C145.996 53.9815 147.173 53.8225 148.573 53.568C148.509 51.5321 148.478 50.2278 148.478 49.6552C148.478 48.4464 148.541 47.2535 148.668 46.0765C148 46.2038 147.301 46.2674 146.569 46.2674C144.66 46.2674 143.324 45.7902 142.561 44.8359C141.829 43.8498 141.463 42.4978 141.463 40.78L141.511 35.7221Z" fill="white"/>
  <path fill-rule="evenodd" clip-rule="evenodd" d="M106.315 45.1699C105.329 44.2792 104.709 43.134 104.454 41.7343H125.926C125.99 41.3208 126.022 40.7005 126.022 39.8734C126.022 37.3922 125.386 35.1972 124.113 33.2886C122.841 31.3481 121.012 29.8371 118.626 28.7555C116.24 27.674 113.425 27.1332 110.18 27.1332C104.74 27.1332 100.732 28.3738 98.1556 30.855C95.579 33.3363 94.2906 36.5651 94.2906 40.5414C94.2906 44.6132 95.579 47.9056 98.1556 50.4187C100.764 52.8999 104.772 54.1406 110.18 54.1406C114.347 54.1406 117.719 53.4884 120.296 52.1842C122.904 50.8481 124.702 49.0667 125.688 46.84C122.157 45.6312 119.326 44.5019 117.194 43.4521C116.495 44.4065 115.556 45.154 114.379 45.6948C113.202 46.2038 111.946 46.4582 110.61 46.4582C108.765 46.4582 107.333 46.0288 106.315 45.1699ZM106.935 35.2449C107.953 34.6405 109.258 34.3383 110.848 34.3383C112.216 34.3383 113.329 34.6564 114.188 35.2927C115.047 35.8971 115.668 36.7082 116.049 37.7262H104.788C105.202 36.6764 105.917 35.8493 106.935 35.2449Z" fill="white"/>
  <path fill-rule="evenodd" clip-rule="evenodd" d="M194.238 45.1699C193.252 44.2792 192.631 43.134 192.377 41.7343H213.849C213.913 41.3208 213.945 40.7005 213.945 39.8734C213.945 37.3922 213.308 35.1972 212.036 33.2886C210.764 31.3481 208.934 29.8371 206.549 28.7555C204.163 27.674 201.348 27.1332 198.103 27.1332C192.663 27.1332 188.655 28.3738 186.078 30.855C183.502 33.3363 182.213 36.5651 182.213 40.5414C182.213 44.6132 183.502 47.9056 186.078 50.4187C188.687 52.8999 192.695 54.1406 198.103 54.1406C202.27 54.1406 205.642 53.4884 208.219 52.1842C210.827 50.8481 212.624 49.0667 213.611 46.84C210.08 45.6312 207.248 44.5019 205.117 43.4521C204.417 44.4065 203.479 45.154 202.302 45.6948C201.125 46.2038 199.868 46.4582 198.532 46.4582C196.687 46.4582 195.256 46.0288 194.238 45.1699ZM194.858 35.2449C195.876 34.6405 197.18 34.3383 198.771 34.3383C200.139 34.3383 201.252 34.6564 202.111 35.2927C202.97 35.8971 203.59 36.7082 203.972 37.7262H192.711C193.124 36.6764 193.84 35.8493 194.858 35.2449Z" fill="white"/>
  <path d="M236.878 27.4672C231.565 27.4672 228.241 29.8689 226.905 34.6723L225.473 27.6103C223.437 27.7058 221.831 27.7535 220.654 27.7535C219.541 27.7535 217.934 27.7058 215.835 27.6103C216.089 32.2547 216.216 36.6128 216.216 40.6846C216.216 44.7564 216.089 49.0826 215.835 53.6634H227.239C227.112 50.8959 227.048 48.3828 227.048 46.1242L227.096 42.975V43.0227C227.096 41.2095 227.525 39.7621 228.384 38.6805C229.243 37.5989 230.579 37.0582 232.392 37.0582C233.855 37.0582 235.732 37.4876 238.023 38.3465L239.55 27.6581C238.691 27.5308 237.8 27.4672 236.878 27.4672Z" fill="white"/>
  <path d="M235.787 52.6614C236.773 53.6475 237.966 54.1406 239.366 54.1406C240.734 54.1406 241.911 53.6475 242.897 52.6614C243.915 51.6434 244.424 50.4346 244.424 49.0349C244.424 47.6671 243.915 46.4901 242.897 45.5039C241.911 44.486 240.734 43.977 239.366 43.977C237.966 43.977 236.773 44.4701 235.787 45.4562C234.801 46.4423 234.308 47.6353 234.308 49.0349C234.308 50.4346 234.801 51.6434 235.787 52.6614Z" fill="white"/>
</svg>
